<?xml version="1.0" encoding="utf-8" standalone="no"?>
<!DOCTYPE svg PUBLIC "-//W3C//DTD SVG 1.1//EN"
  "http://www.w3.org/Graphics/SVG/1.1/DTD/svg11.dtd">
<svg xmlns:xlink="http://www.w3.org/1999/xlink" width="411.921562pt" height="312.30825pt" viewBox="0 0 411.921562 312.30825" xmlns="http://www.w3.org/2000/svg" version="1.1">
 <metadata>
  <rdf:RDF xmlns:dc="http://purl.org/dc/elements/1.1/" xmlns:cc="http://creativecommons.org/ns#" xmlns:rdf="http://www.w3.org/1999/02/22-rdf-syntax-ns#">
   <cc:Work>
    <dc:type rdf:resource="http://purl.org/dc/dcmitype/StillImage"/>
    <dc:date>2025-04-24T17:51:40.049727</dc:date>
    <dc:format>image/svg+xml</dc:format>
    <dc:creator>
     <cc:Agent>
      <dc:title>Matplotlib v3.10.1, https://matplotlib.org/</dc:title>
     </cc:Agent>
    </dc:creator>
   </cc:Work>
  </rdf:RDF>
 </metadata>
 <defs>
  <style type="text/css">*{stroke-linejoin: round; stroke-linecap: butt}</style>
 </defs>
 <g id="figure_1">
  <g id="patch_1">
   <path d="M 0 312.30825 
L 411.921562 312.30825 
L 411.921562 0 
L 0 0 
z
" style="fill: #ffffff"/>
  </g>
  <g id="axes_1">
   <g id="patch_2">
    <path d="M 39.65 100.58636 
L 144.685294 100.58636 
L 144.685294 22.318125 
L 39.65 22.318125 
z
" style="fill: #ffffff"/>
   </g>
   <g id="matplotlib.axis_1">
    <g id="xtick_1">
     <g id="line2d_1">
      <defs>
       <path id="m80177596ed" d="M 0 0 
L 0 3.5 
" style="stroke: #000000; stroke-width: 0.8"/>
      </defs>
      <g>
       <use xlink:href="#m80177596ed" x="44.424332" y="100.58636" style="stroke: #000000; stroke-width: 0.8"/>
      </g>
     </g>
    </g>
    <g id="xtick_2">
     <g id="line2d_2">
      <g>
       <use xlink:href="#m80177596ed" x="92.167647" y="100.58636" style="stroke: #000000; stroke-width: 0.8"/>
      </g>
     </g>
    </g>
    <g id="xtick_3">
     <g id="line2d_3">
      <g>
       <use xlink:href="#m80177596ed" x="139.910963" y="100.58636" style="stroke: #000000; stroke-width: 0.8"/>
      </g>
     </g>
    </g>
   </g>
   <g id="matplotlib.axis_2">
    <g id="ytick_1">
     <g id="line2d_4">
      <defs>
       <path id="ma27b286f9c" d="M 0 0 
L -3.5 0 
" style="stroke: #000000; stroke-width: 0.8"/>
      </defs>
      <g>
       <use xlink:href="#ma27b286f9c" x="39.65" y="97.499568" style="stroke: #000000; stroke-width: 0.8"/>
      </g>
     </g>
     <g id="text_1">
      <text style="font-size: 10px; font-family: 'Arial', sans-serif; text-anchor: end" x="32.65" y="101.298787" transform="rotate(-0 32.65 101.298787)">0</text>
     </g>
    </g>
    <g id="ytick_2">
     <g id="line2d_5">
      <g>
       <use xlink:href="#ma27b286f9c" x="39.65" y="61.68767" style="stroke: #000000; stroke-width: 0.8"/>
      </g>
     </g>
     <g id="text_2">
      <text style="font-size: 10px; font-family: 'Arial', sans-serif; text-anchor: end" x="32.65" y="65.486889" transform="rotate(-0 32.65 65.486889)">500</text>
     </g>
    </g>
    <g id="ytick_3">
     <g id="line2d_6">
      <g>
       <use xlink:href="#ma27b286f9c" x="39.65" y="25.875772" style="stroke: #000000; stroke-width: 0.8"/>
      </g>
     </g>
     <g id="text_3">
      <text style="font-size: 10px; font-family: 'Arial', sans-serif; text-anchor: end" x="32.65" y="29.674991" transform="rotate(-0 32.65 29.674991)">1000</text>
     </g>
    </g>
   </g>
   <g id="line2d_7">
    <path d="M 44.424332 25.875772 
L 88.025533 25.875772 
L 89.333569 41.708644 
L 90.641605 53.907247 
L 91.949641 63.166128 
L 93.257677 70.212406 
L 94.565713 75.59823 
L 95.873749 79.701127 
L 97.181785 82.86919 
L 98.489821 85.345081 
L 99.797857 87.279067 
L 101.105893 88.826356 
L 102.413929 90.057354 
L 104.157977 91.332903 
L 105.902025 92.334275 
L 108.518098 93.450675 
L 111.13417 94.269693 
L 114.622266 95.040365 
L 118.982386 95.699519 
L 124.21453 96.24078 
L 131.626734 96.719442 
L 139.910963 97.028713 
L 139.910963 97.028713 
" clip-path="url(#p1432c14b53)" style="fill: none; stroke: #1f77b4; stroke-width: 1.5; stroke-linecap: square"/>
   </g>
   <g id="patch_3">
    <path d="M 39.65 100.58636 
L 39.65 22.318125 
" style="fill: none; stroke: #000000; stroke-width: 0.8; stroke-linejoin: miter; stroke-linecap: square"/>
   </g>
   <g id="patch_4">
    <path d="M 144.685294 100.58636 
L 144.685294 22.318125 
" style="fill: none; stroke: #000000; stroke-width: 0.8; stroke-linejoin: miter; stroke-linecap: square"/>
   </g>
   <g id="patch_5">
    <path d="M 39.65 100.58636 
L 144.685294 100.58636 
" style="fill: none; stroke: #000000; stroke-width: 0.8; stroke-linejoin: miter; stroke-linecap: square"/>
   </g>
   <g id="patch_6">
    <path d="M 39.65 22.318125 
L 144.685294 22.318125 
" style="fill: none; stroke: #000000; stroke-width: 0.8; stroke-linejoin: miter; stroke-linecap: square"/>
   </g>
   <g id="text_4">
    <text style="font-size: 12px; font-family: 'Arial', sans-serif; text-anchor: middle" x="92.167647" y="16.318125" transform="rotate(-0 92.167647 16.318125)">K = 1</text>
   </g>
   <g id="legend_1">
    <g id="patch_7">
     <path d="M 99.322794 44.99625 
L 137.685294 44.99625 
Q 139.685294 44.99625 139.685294 42.99625 
L 139.685294 29.318125 
Q 139.685294 27.318125 137.685294 27.318125 
L 99.322794 27.318125 
Q 97.322794 27.318125 97.322794 29.318125 
L 97.322794 42.99625 
Q 97.322794 44.99625 99.322794 44.99625 
z
" style="fill: #ffffff; opacity: 0.8; stroke: #cccccc; stroke-linejoin: miter"/>
    </g>
    <g id="line2d_8">
     <path d="M 101.322794 35.416563 
L 111.322794 35.416563 
L 121.322794 35.416563 
" style="fill: none; stroke: #1f77b4; stroke-width: 1.5; stroke-linecap: square"/>
    </g>
    <g id="text_5">
     <text style="font-size: 10px; font-family: 'Arial', sans-serif; text-anchor: start" x="129.322794" y="38.916563" transform="rotate(-0 129.322794 38.916563)">0</text>
    </g>
   </g>
  </g>
  <g id="axes_2">
   <g id="patch_8">
    <path d="M 165.692353 100.58636 
L 270.727647 100.58636 
L 270.727647 22.318125 
L 165.692353 22.318125 
z
" style="fill: #ffffff"/>
   </g>
   <g id="matplotlib.axis_3">
    <g id="xtick_4">
     <g id="line2d_9">
      <g>
       <use xlink:href="#m80177596ed" x="170.466684" y="100.58636" style="stroke: #000000; stroke-width: 0.8"/>
      </g>
     </g>
    </g>
    <g id="xtick_5">
     <g id="line2d_10">
      <g>
       <use xlink:href="#m80177596ed" x="218.21" y="100.58636" style="stroke: #000000; stroke-width: 0.8"/>
      </g>
     </g>
    </g>
    <g id="xtick_6">
     <g id="line2d_11">
      <g>
       <use xlink:href="#m80177596ed" x="265.953316" y="100.58636" style="stroke: #000000; stroke-width: 0.8"/>
      </g>
     </g>
    </g>
   </g>
   <g id="matplotlib.axis_4">
    <g id="ytick_4">
     <g id="line2d_12">
      <g>
       <use xlink:href="#ma27b286f9c" x="165.692353" y="97.50512" style="stroke: #000000; stroke-width: 0.8"/>
      </g>
     </g>
    </g>
    <g id="ytick_5">
     <g id="line2d_13">
      <g>
       <use xlink:href="#ma27b286f9c" x="165.692353" y="61.690446" style="stroke: #000000; stroke-width: 0.8"/>
      </g>
     </g>
    </g>
    <g id="ytick_6">
     <g id="line2d_14">
      <g>
       <use xlink:href="#ma27b286f9c" x="165.692353" y="25.875772" style="stroke: #000000; stroke-width: 0.8"/>
      </g>
     </g>
    </g>
   </g>
   <g id="line2d_15">
    <path d="M 170.466684 25.875772 
L 202.402013 25.875772 
L 203.360072 43.812834 
L 204.318132 57.208024 
L 205.276192 67.048751 
L 206.234252 74.275079 
L 207.192312 79.575578 
L 208.150372 83.388766 
L 209.108431 86.165406 
L 210.066491 88.184566 
L 211.024551 89.648455 
L 211.982611 90.742163 
L 213.260024 91.7896 
L 214.537437 92.53741 
L 216.134204 93.234292 
L 218.050323 93.849015 
L 220.924503 94.498765 
L 224.437389 95.043649 
L 229.227688 95.561744 
L 236.892167 96.096815 
L 254.456597 96.788325 
L 265.953316 97.028713 
L 265.953316 97.028713 
" clip-path="url(#pe695b5258c)" style="fill: none; stroke: #1f77b4; stroke-width: 1.5; stroke-linecap: square"/>
   </g>
   <g id="patch_9">
    <path d="M 165.692353 100.58636 
L 165.692353 22.318125 
" style="fill: none; stroke: #000000; stroke-width: 0.8; stroke-linejoin: miter; stroke-linecap: square"/>
   </g>
   <g id="patch_10">
    <path d="M 270.727647 100.58636 
L 270.727647 22.318125 
" style="fill: none; stroke: #000000; stroke-width: 0.8; stroke-linejoin: miter; stroke-linecap: square"/>
   </g>
   <g id="patch_11">
    <path d="M 165.692353 100.58636 
L 270.727647 100.58636 
" style="fill: none; stroke: #000000; stroke-width: 0.8; stroke-linejoin: miter; stroke-linecap: square"/>
   </g>
   <g id="patch_12">
    <path d="M 165.692353 22.318125 
L 270.727647 22.318125 
" style="fill: none; stroke: #000000; stroke-width: 0.8; stroke-linejoin: miter; stroke-linecap: square"/>
   </g>
   <g id="text_6">
    <text style="font-size: 12px; font-family: 'Arial', sans-serif; text-anchor: middle" x="218.21" y="16.318125" transform="rotate(-0 218.21 16.318125)">K = 2</text>
   </g>
  </g>
  <g id="axes_3">
   <g id="patch_13">
    <path d="M 291.734706 100.58636 
L 396.77 100.58636 
L 396.77 22.318125 
L 291.734706 22.318125 
z
" style="fill: #ffffff"/>
   </g>
   <g id="matplotlib.axis_5">
    <g id="xtick_7">
     <g id="line2d_16">
      <g>
       <use xlink:href="#m80177596ed" x="291.734706" y="100.58636" style="stroke: #000000; stroke-width: 0.8"/>
      </g>
     </g>
    </g>
    <g id="xtick_8">
     <g id="line2d_17">
      <g>
       <use xlink:href="#m80177596ed" x="344.252353" y="100.58636" style="stroke: #000000; stroke-width: 0.8"/>
      </g>
     </g>
    </g>
    <g id="xtick_9">
     <g id="line2d_18">
      <g>
       <use xlink:href="#m80177596ed" x="396.77" y="100.58636" style="stroke: #000000; stroke-width: 0.8"/>
      </g>
     </g>
    </g>
   </g>
   <g id="matplotlib.axis_6">
    <g id="ytick_7">
     <g id="line2d_19">
      <g>
       <use xlink:href="#ma27b286f9c" x="291.734706" y="100.58636" style="stroke: #000000; stroke-width: 0.8"/>
      </g>
     </g>
    </g>
    <g id="ytick_8">
     <g id="line2d_20">
      <g>
       <use xlink:href="#ma27b286f9c" x="291.734706" y="61.452243" style="stroke: #000000; stroke-width: 0.8"/>
      </g>
     </g>
    </g>
    <g id="ytick_9">
     <g id="line2d_21">
      <g>
       <use xlink:href="#ma27b286f9c" x="291.734706" y="22.318125" style="stroke: #000000; stroke-width: 0.8"/>
      </g>
     </g>
    </g>
   </g>
   <g id="patch_14">
    <path d="M 291.734706 100.58636 
L 291.734706 22.318125 
" style="fill: none; stroke: #000000; stroke-width: 0.8; stroke-linejoin: miter; stroke-linecap: square"/>
   </g>
   <g id="patch_15">
    <path d="M 396.77 100.58636 
L 396.77 22.318125 
" style="fill: none; stroke: #000000; stroke-width: 0.8; stroke-linejoin: miter; stroke-linecap: square"/>
   </g>
   <g id="patch_16">
    <path d="M 291.734706 100.58636 
L 396.77 100.58636 
" style="fill: none; stroke: #000000; stroke-width: 0.8; stroke-linejoin: miter; stroke-linecap: square"/>
   </g>
   <g id="patch_17">
    <path d="M 291.734706 22.318125 
L 396.77 22.318125 
" style="fill: none; stroke: #000000; stroke-width: 0.8; stroke-linejoin: miter; stroke-linecap: square"/>
   </g>
   <g id="text_7">
    <text style="font-size: 12px; font-family: 'Arial', sans-serif; text-anchor: middle" x="344.252353" y="16.318125" transform="rotate(-0 344.252353 16.318125)">K = 3</text>
   </g>
  </g>
  <g id="axes_4">
   <g id="patch_18">
    <path d="M 39.65 194.508243 
L 144.685294 194.508243 
L 144.685294 116.240007 
L 39.65 116.240007 
z
" style="fill: #ffffff"/>
   </g>
   <g id="matplotlib.axis_7">
    <g id="xtick_10">
     <g id="line2d_22">
      <g>
       <use xlink:href="#m80177596ed" x="44.424332" y="194.508243" style="stroke: #000000; stroke-width: 0.8"/>
      </g>
     </g>
    </g>
    <g id="xtick_11">
     <g id="line2d_23">
      <g>
       <use xlink:href="#m80177596ed" x="92.167647" y="194.508243" style="stroke: #000000; stroke-width: 0.8"/>
      </g>
     </g>
    </g>
    <g id="xtick_12">
     <g id="line2d_24">
      <g>
       <use xlink:href="#m80177596ed" x="139.910963" y="194.508243" style="stroke: #000000; stroke-width: 0.8"/>
      </g>
     </g>
    </g>
   </g>
   <g id="matplotlib.axis_8">
    <g id="ytick_10">
     <g id="line2d_25">
      <g>
       <use xlink:href="#ma27b286f9c" x="39.65" y="194.508243" style="stroke: #000000; stroke-width: 0.8"/>
      </g>
     </g>
     <g id="text_8">
      <text style="font-size: 10px; font-family: 'Arial', sans-serif; text-anchor: end" x="32.65" y="198.307461" transform="rotate(-0 32.65 198.307461)">0</text>
     </g>
    </g>
    <g id="ytick_11">
     <g id="line2d_26">
      <g>
       <use xlink:href="#ma27b286f9c" x="39.65" y="155.374125" style="stroke: #000000; stroke-width: 0.8"/>
      </g>
     </g>
     <g id="text_9">
      <text style="font-size: 10px; font-family: 'Arial', sans-serif; text-anchor: end" x="32.65" y="159.173344" transform="rotate(-0 32.65 159.173344)">500</text>
     </g>
    </g>
    <g id="ytick_12">
     <g id="line2d_27">
      <g>
       <use xlink:href="#ma27b286f9c" x="39.65" y="116.240007" style="stroke: #000000; stroke-width: 0.8"/>
      </g>
     </g>
     <g id="text_10">
      <text style="font-size: 10px; font-family: 'Arial', sans-serif; text-anchor: end" x="32.65" y="120.039226" transform="rotate(-0 32.65 120.039226)">1000</text>
     </g>
    </g>
   </g>
   <g id="line2d_28">
    <path d="M 44.424332 116.240007 
L 121.162446 116.240007 
L 122.470482 116.787885 
L 123.778518 117.570567 
L 125.086554 119.135932 
L 126.830602 123.284149 
L 127.266614 124.927781 
L 129.010662 133.772092 
L 130.318698 143.477353 
L 130.75471 145.981937 
L 132.93477 161.244243 
L 135.986854 179.0894 
L 136.858878 181.985325 
L 137.29489 184.098567 
L 137.730902 185.037786 
L 138.602927 187.229297 
L 139.474951 188.716393 
L 139.910963 189.890417 
L 139.910963 189.890417 
" clip-path="url(#pf6382d6906)" style="fill: none; stroke: #1f77b4; stroke-width: 1.5; stroke-linecap: square"/>
   </g>
   <g id="patch_19">
    <path d="M 39.65 194.508243 
L 39.65 116.240007 
" style="fill: none; stroke: #000000; stroke-width: 0.8; stroke-linejoin: miter; stroke-linecap: square"/>
   </g>
   <g id="patch_20">
    <path d="M 144.685294 194.508243 
L 144.685294 116.240007 
" style="fill: none; stroke: #000000; stroke-width: 0.8; stroke-linejoin: miter; stroke-linecap: square"/>
   </g>
   <g id="patch_21">
    <path d="M 39.65 194.508243 
L 144.685294 194.508243 
" style="fill: none; stroke: #000000; stroke-width: 0.8; stroke-linejoin: miter; stroke-linecap: square"/>
   </g>
   <g id="patch_22">
    <path d="M 39.65 116.240007 
L 144.685294 116.240007 
" style="fill: none; stroke: #000000; stroke-width: 0.8; stroke-linejoin: miter; stroke-linecap: square"/>
   </g>
  </g>
  <g id="axes_5">
   <g id="patch_23">
    <path d="M 165.692353 194.508243 
L 270.727647 194.508243 
L 270.727647 116.240007 
L 165.692353 116.240007 
z
" style="fill: #ffffff"/>
   </g>
   <g id="matplotlib.axis_9">
    <g id="xtick_13">
     <g id="line2d_29">
      <g>
       <use xlink:href="#m80177596ed" x="170.466684" y="194.508243" style="stroke: #000000; stroke-width: 0.8"/>
      </g>
     </g>
    </g>
    <g id="xtick_14">
     <g id="line2d_30">
      <g>
       <use xlink:href="#m80177596ed" x="218.21" y="194.508243" style="stroke: #000000; stroke-width: 0.8"/>
      </g>
     </g>
    </g>
    <g id="xtick_15">
     <g id="line2d_31">
      <g>
       <use xlink:href="#m80177596ed" x="265.953316" y="194.508243" style="stroke: #000000; stroke-width: 0.8"/>
      </g>
     </g>
    </g>
   </g>
   <g id="matplotlib.axis_10">
    <g id="ytick_13">
     <g id="line2d_32">
      <g>
       <use xlink:href="#ma27b286f9c" x="165.692353" y="194.508243" style="stroke: #000000; stroke-width: 0.8"/>
      </g>
     </g>
    </g>
    <g id="ytick_14">
     <g id="line2d_33">
      <g>
       <use xlink:href="#ma27b286f9c" x="165.692353" y="155.374125" style="stroke: #000000; stroke-width: 0.8"/>
      </g>
     </g>
    </g>
    <g id="ytick_15">
     <g id="line2d_34">
      <g>
       <use xlink:href="#ma27b286f9c" x="165.692353" y="116.240007" style="stroke: #000000; stroke-width: 0.8"/>
      </g>
     </g>
    </g>
   </g>
   <g id="line2d_35">
    <path d="M 170.466684 116.240007 
L 237.21152 116.318276 
L 238.808287 116.631349 
L 239.12764 116.631349 
L 240.0857 117.179226 
L 242.321173 118.901127 
L 242.640526 119.2142 
L 243.598586 120.857833 
L 243.917939 122.110125 
L 244.237292 122.423198 
L 245.195352 124.849513 
L 245.834059 126.806219 
L 246.472765 128.449852 
L 247.750178 133.067678 
L 249.027592 138.702991 
L 249.346945 139.64221 
L 249.666298 141.442379 
L 250.305005 143.712158 
L 251.263065 147.860374 
L 251.901771 149.81708 
L 252.540478 152.634737 
L 254.137244 161.087706 
L 254.456597 162.026925 
L 255.414657 165.548996 
L 256.372717 169.227603 
L 257.011424 171.184309 
L 258.288837 176.741353 
L 258.60819 177.210963 
L 259.246897 179.0894 
L 259.56625 179.55901 
L 259.885603 180.733033 
L 260.204956 181.202643 
L 260.843663 183.159349 
L 261.48237 184.255104 
L 261.801723 185.037786 
L 264.356549 188.716393 
L 264.995256 189.107734 
L 265.953316 190.125221 
L 265.953316 190.125221 
" clip-path="url(#p5b3b453d7d)" style="fill: none; stroke: #1f77b4; stroke-width: 1.5; stroke-linecap: square"/>
   </g>
   <g id="patch_24">
    <path d="M 165.692353 194.508243 
L 165.692353 116.240007 
" style="fill: none; stroke: #000000; stroke-width: 0.8; stroke-linejoin: miter; stroke-linecap: square"/>
   </g>
   <g id="patch_25">
    <path d="M 270.727647 194.508243 
L 270.727647 116.240007 
" style="fill: none; stroke: #000000; stroke-width: 0.8; stroke-linejoin: miter; stroke-linecap: square"/>
   </g>
   <g id="patch_26">
    <path d="M 165.692353 194.508243 
L 270.727647 194.508243 
" style="fill: none; stroke: #000000; stroke-width: 0.8; stroke-linejoin: miter; stroke-linecap: square"/>
   </g>
   <g id="patch_27">
    <path d="M 165.692353 116.240007 
L 270.727647 116.240007 
" style="fill: none; stroke: #000000; stroke-width: 0.8; stroke-linejoin: miter; stroke-linecap: square"/>
   </g>
  </g>
  <g id="axes_6">
   <g id="patch_28">
    <path d="M 291.734706 194.508243 
L 396.77 194.508243 
L 396.77 116.240007 
L 291.734706 116.240007 
z
" style="fill: #ffffff"/>
   </g>
   <g id="matplotlib.axis_11">
    <g id="xtick_16">
     <g id="line2d_36">
      <g>
       <use xlink:href="#m80177596ed" x="291.734706" y="194.508243" style="stroke: #000000; stroke-width: 0.8"/>
      </g>
     </g>
    </g>
    <g id="xtick_17">
     <g id="line2d_37">
      <g>
       <use xlink:href="#m80177596ed" x="344.252353" y="194.508243" style="stroke: #000000; stroke-width: 0.8"/>
      </g>
     </g>
    </g>
    <g id="xtick_18">
     <g id="line2d_38">
      <g>
       <use xlink:href="#m80177596ed" x="396.77" y="194.508243" style="stroke: #000000; stroke-width: 0.8"/>
      </g>
     </g>
    </g>
   </g>
   <g id="matplotlib.axis_12">
    <g id="ytick_16">
     <g id="line2d_39">
      <g>
       <use xlink:href="#ma27b286f9c" x="291.734706" y="194.508243" style="stroke: #000000; stroke-width: 0.8"/>
      </g>
     </g>
    </g>
    <g id="ytick_17">
     <g id="line2d_40">
      <g>
       <use xlink:href="#ma27b286f9c" x="291.734706" y="155.374125" style="stroke: #000000; stroke-width: 0.8"/>
      </g>
     </g>
    </g>
    <g id="ytick_18">
     <g id="line2d_41">
      <g>
       <use xlink:href="#ma27b286f9c" x="291.734706" y="116.240007" style="stroke: #000000; stroke-width: 0.8"/>
      </g>
     </g>
    </g>
   </g>
   <g id="patch_29">
    <path d="M 291.734706 194.508243 
L 291.734706 116.240007 
" style="fill: none; stroke: #000000; stroke-width: 0.8; stroke-linejoin: miter; stroke-linecap: square"/>
   </g>
   <g id="patch_30">
    <path d="M 396.77 194.508243 
L 396.77 116.240007 
" style="fill: none; stroke: #000000; stroke-width: 0.8; stroke-linejoin: miter; stroke-linecap: square"/>
   </g>
   <g id="patch_31">
    <path d="M 291.734706 194.508243 
L 396.77 194.508243 
" style="fill: none; stroke: #000000; stroke-width: 0.8; stroke-linejoin: miter; stroke-linecap: square"/>
   </g>
   <g id="patch_32">
    <path d="M 291.734706 116.240007 
L 396.77 116.240007 
" style="fill: none; stroke: #000000; stroke-width: 0.8; stroke-linejoin: miter; stroke-linecap: square"/>
   </g>
  </g>
  <g id="axes_7">
   <g id="patch_33">
    <path d="M 39.65 288.430125 
L 144.685294 288.430125 
L 144.685294 210.16189 
L 39.65 210.16189 
z
" style="fill: #ffffff"/>
   </g>
   <g id="matplotlib.axis_13">
    <g id="xtick_19">
     <g id="line2d_42">
      <g>
       <use xlink:href="#m80177596ed" x="44.424332" y="288.430125" style="stroke: #000000; stroke-width: 0.8"/>
      </g>
     </g>
     <g id="text_11">
      <text style="font-size: 10px; font-family: 'Arial', sans-serif; text-anchor: middle" x="44.424332" y="303.028562" transform="rotate(-0 44.424332 303.028562)">0.0</text>
     </g>
    </g>
    <g id="xtick_20">
     <g id="line2d_43">
      <g>
       <use xlink:href="#m80177596ed" x="92.167647" y="288.430125" style="stroke: #000000; stroke-width: 0.8"/>
      </g>
     </g>
     <g id="text_12">
      <text style="font-size: 10px; font-family: 'Arial', sans-serif; text-anchor: middle" x="92.167647" y="303.028562" transform="rotate(-0 92.167647 303.028562)">0.5</text>
     </g>
    </g>
    <g id="xtick_21">
     <g id="line2d_44">
      <g>
       <use xlink:href="#m80177596ed" x="139.910963" y="288.430125" style="stroke: #000000; stroke-width: 0.8"/>
      </g>
     </g>
     <g id="text_13">
      <text style="font-size: 10px; font-family: 'Arial', sans-serif; text-anchor: middle" x="139.910963" y="303.028562" transform="rotate(-0 139.910963 303.028562)">1.0</text>
     </g>
    </g>
   </g>
   <g id="matplotlib.axis_14">
    <g id="ytick_19">
     <g id="line2d_45">
      <g>
       <use xlink:href="#ma27b286f9c" x="39.65" y="288.430125" style="stroke: #000000; stroke-width: 0.8"/>
      </g>
     </g>
     <g id="text_14">
      <!-- $\mathdefault{10^{-3}}$ -->
      <g transform="translate(9.15 292.229344)">
       <text>
        <tspan x="0" y="-0.976562" style="font-size: 10px; font-family: 'DejaVu Sans'">1</tspan>
        <tspan x="6.362305" y="-0.976562" style="font-size: 10px; font-family: 'DejaVu Sans'">0</tspan>
        <tspan x="12.820312" y="-4.804688" style="font-size: 7px; font-family: 'DejaVu Sans'">−</tspan>
        <tspan x="18.685547" y="-4.804688" style="font-size: 7px; font-family: 'DejaVu Sans'">3</tspan>
       </text>
      </g>
     </g>
    </g>
    <g id="ytick_20">
     <g id="line2d_46">
      <g>
       <use xlink:href="#ma27b286f9c" x="39.65" y="257.122831" style="stroke: #000000; stroke-width: 0.8"/>
      </g>
     </g>
     <g id="text_15">
      <!-- $\mathdefault{10^{-1}}$ -->
      <g transform="translate(9.15 260.92205)">
       <text>
        <tspan x="0" y="-0.064063" style="font-size: 10px; font-family: 'DejaVu Sans'">1</tspan>
        <tspan x="6.362305" y="-0.064063" style="font-size: 10px; font-family: 'DejaVu Sans'">0</tspan>
        <tspan x="12.820312" y="-3.892188" style="font-size: 7px; font-family: 'DejaVu Sans'">−</tspan>
        <tspan x="18.685547" y="-3.892188" style="font-size: 7px; font-family: 'DejaVu Sans'">1</tspan>
       </text>
      </g>
     </g>
    </g>
    <g id="ytick_21">
     <g id="line2d_47">
      <g>
       <use xlink:href="#ma27b286f9c" x="39.65" y="225.815537" style="stroke: #000000; stroke-width: 0.8"/>
      </g>
     </g>
     <g id="text_16">
      <!-- $\mathdefault{10^{1}}$ -->
      <g transform="translate(15.05 229.614756)">
       <text>
        <tspan x="0" y="-0.064063" style="font-size: 10px; font-family: 'DejaVu Sans'">1</tspan>
        <tspan x="6.362305" y="-0.064063" style="font-size: 10px; font-family: 'DejaVu Sans'">0</tspan>
        <tspan x="12.820312" y="-3.892188" style="font-size: 7px; font-family: 'DejaVu Sans'">1</tspan>
       </text>
      </g>
     </g>
    </g>
   </g>
   <g id="line2d_48">
    <path d="M 102.427788 313.30825 
L 102.430229 270.565027 
L 103.322627 265.85281 
L 104.215026 262.048378 
L 105.107424 259.623597 
L 105.999823 258.384122 
L 106.892221 256.016231 
L 107.784619 253.671905 
L 108.677018 251.931995 
L 109.569416 250.729168 
L 110.461815 248.682168 
L 111.354213 247.111003 
L 112.246612 246.109446 
L 113.13901 244.825389 
L 114.031408 243.482739 
L 114.923807 242.086472 
L 115.816205 240.835081 
L 116.708604 239.816812 
L 117.601002 238.907298 
L 118.4934 237.768657 
L 119.385799 236.756214 
L 120.278197 236.000145 
L 121.170596 235.504609 
L 122.062994 234.857283 
L 122.955393 234.150217 
L 123.847791 233.703415 
L 124.740189 233.333498 
L 125.632588 232.934534 
L 126.524986 232.639941 
L 127.417385 232.278594 
L 128.309783 232.0662 
L 129.202182 231.801423 
L 130.09458 231.442806 
L 130.986978 231.306123 
L 131.879377 230.915612 
L 132.771775 230.847587 
L 133.664174 230.737448 
L 134.556572 230.428551 
L 135.44897 230.370435 
L 136.341369 230.245442 
L 137.233767 230.157405 
L 138.126166 230.120971 
L 139.018564 230.048469 
L 139.910963 229.839082 
" clip-path="url(#p8ef8277fea)" style="fill: none; stroke: #1f77b4; stroke-width: 1.5; stroke-linecap: square"/>
   </g>
   <g id="patch_34">
    <path d="M 39.65 288.430125 
L 39.65 210.16189 
" style="fill: none; stroke: #000000; stroke-width: 0.8; stroke-linejoin: miter; stroke-linecap: square"/>
   </g>
   <g id="patch_35">
    <path d="M 144.685294 288.430125 
L 144.685294 210.16189 
" style="fill: none; stroke: #000000; stroke-width: 0.8; stroke-linejoin: miter; stroke-linecap: square"/>
   </g>
   <g id="patch_36">
    <path d="M 39.65 288.430125 
L 144.685294 288.430125 
" style="fill: none; stroke: #000000; stroke-width: 0.8; stroke-linejoin: miter; stroke-linecap: square"/>
   </g>
   <g id="patch_37">
    <path d="M 39.65 210.16189 
L 144.685294 210.16189 
" style="fill: none; stroke: #000000; stroke-width: 0.8; stroke-linejoin: miter; stroke-linecap: square"/>
   </g>
  </g>
  <g id="axes_8">
   <g id="patch_38">
    <path d="M 165.692353 288.430125 
L 270.727647 288.430125 
L 270.727647 210.16189 
L 165.692353 210.16189 
z
" style="fill: #ffffff"/>
   </g>
   <g id="matplotlib.axis_15">
    <g id="xtick_22">
     <g id="line2d_49">
      <g>
       <use xlink:href="#m80177596ed" x="170.466684" y="288.430125" style="stroke: #000000; stroke-width: 0.8"/>
      </g>
     </g>
     <g id="text_17">
      <text style="font-size: 10px; font-family: 'Arial', sans-serif; text-anchor: middle" x="170.466684" y="303.028562" transform="rotate(-0 170.466684 303.028562)">0.0</text>
     </g>
    </g>
    <g id="xtick_23">
     <g id="line2d_50">
      <g>
       <use xlink:href="#m80177596ed" x="218.21" y="288.430125" style="stroke: #000000; stroke-width: 0.8"/>
      </g>
     </g>
     <g id="text_18">
      <text style="font-size: 10px; font-family: 'Arial', sans-serif; text-anchor: middle" x="218.21" y="303.028562" transform="rotate(-0 218.21 303.028562)">0.5</text>
     </g>
    </g>
    <g id="xtick_24">
     <g id="line2d_51">
      <g>
       <use xlink:href="#m80177596ed" x="265.953316" y="288.430125" style="stroke: #000000; stroke-width: 0.8"/>
      </g>
     </g>
     <g id="text_19">
      <text style="font-size: 10px; font-family: 'Arial', sans-serif; text-anchor: middle" x="265.953316" y="303.028562" transform="rotate(-0 265.953316 303.028562)">1.0</text>
     </g>
    </g>
   </g>
   <g id="matplotlib.axis_16">
    <g id="ytick_22">
     <g id="line2d_52">
      <g>
       <use xlink:href="#ma27b286f9c" x="165.692353" y="288.430125" style="stroke: #000000; stroke-width: 0.8"/>
      </g>
     </g>
    </g>
    <g id="ytick_23">
     <g id="line2d_53">
      <g>
       <use xlink:href="#ma27b286f9c" x="165.692353" y="257.122831" style="stroke: #000000; stroke-width: 0.8"/>
      </g>
     </g>
    </g>
    <g id="ytick_24">
     <g id="line2d_54">
      <g>
       <use xlink:href="#ma27b286f9c" x="165.692353" y="225.815537" style="stroke: #000000; stroke-width: 0.8"/>
      </g>
     </g>
    </g>
   </g>
   <g id="line2d_55">
    <path d="M 214.838607 313.30825 
L 214.839884 277.820229 
L 215.40157 277.820229 
L 215.963256 273.108012 
L 216.524942 273.108012 
L 217.086628 270.351541 
L 217.648314 268.395794 
L 218.21 266.878799 
L 218.771686 266.878799 
L 219.895058 262.166582 
L 220.456744 260.927107 
L 221.580116 258.170636 
L 222.141802 257.454365 
L 222.703489 256.214889 
L 224.950233 253.090854 
L 226.073605 250.958518 
L 226.635291 250.099937 
L 227.196977 248.468682 
L 227.758663 248.115444 
L 230.005407 244.99594 
L 235.622268 239.891341 
L 237.307326 238.784696 
L 238.430698 238.238387 
L 240.115757 237.349524 
L 242.362501 236.508036 
L 242.924187 236.199253 
L 243.485873 236.051046 
L 245.170931 235.239455 
L 247.417675 234.713597 
L 249.102734 234.284983 
L 250.787792 233.966334 
L 251.911164 233.63908 
L 252.47285 233.464889 
L 253.596222 233.350282 
L 255.28128 233.086562 
L 256.404652 232.937806 
L 257.528025 232.740046 
L 263.144885 232.318839 
L 265.391629 232.256325 
L 265.953316 232.204165 
L 265.953316 232.204165 
" clip-path="url(#pa03c4fabeb)" style="fill: none; stroke: #1f77b4; stroke-width: 1.5; stroke-linecap: square"/>
   </g>
   <g id="patch_39">
    <path d="M 165.692353 288.430125 
L 165.692353 210.16189 
" style="fill: none; stroke: #000000; stroke-width: 0.8; stroke-linejoin: miter; stroke-linecap: square"/>
   </g>
   <g id="patch_40">
    <path d="M 270.727647 288.430125 
L 270.727647 210.16189 
" style="fill: none; stroke: #000000; stroke-width: 0.8; stroke-linejoin: miter; stroke-linecap: square"/>
   </g>
   <g id="patch_41">
    <path d="M 165.692353 288.430125 
L 270.727647 288.430125 
" style="fill: none; stroke: #000000; stroke-width: 0.8; stroke-linejoin: miter; stroke-linecap: square"/>
   </g>
   <g id="patch_42">
    <path d="M 165.692353 210.16189 
L 270.727647 210.16189 
" style="fill: none; stroke: #000000; stroke-width: 0.8; stroke-linejoin: miter; stroke-linecap: square"/>
   </g>
  </g>
  <g id="axes_9">
   <g id="patch_43">
    <path d="M 291.734706 288.430125 
L 396.77 288.430125 
L 396.77 210.16189 
L 291.734706 210.16189 
z
" style="fill: #ffffff"/>
   </g>
   <g id="matplotlib.axis_17">
    <g id="xtick_25">
     <g id="line2d_56">
      <g>
       <use xlink:href="#m80177596ed" x="291.734706" y="288.430125" style="stroke: #000000; stroke-width: 0.8"/>
      </g>
     </g>
     <g id="text_20">
      <text style="font-size: 10px; font-family: 'Arial', sans-serif; text-anchor: middle" x="291.734706" y="303.028562" transform="rotate(-0 291.734706 303.028562)">0.0</text>
     </g>
    </g>
    <g id="xtick_26">
     <g id="line2d_57">
      <g>
       <use xlink:href="#m80177596ed" x="344.252353" y="288.430125" style="stroke: #000000; stroke-width: 0.8"/>
      </g>
     </g>
     <g id="text_21">
      <text style="font-size: 10px; font-family: 'Arial', sans-serif; text-anchor: middle" x="344.252353" y="303.028562" transform="rotate(-0 344.252353 303.028562)">0.5</text>
     </g>
    </g>
    <g id="xtick_27">
     <g id="line2d_58">
      <g>
       <use xlink:href="#m80177596ed" x="396.77" y="288.430125" style="stroke: #000000; stroke-width: 0.8"/>
      </g>
     </g>
     <g id="text_22">
      <text style="font-size: 10px; font-family: 'Arial', sans-serif; text-anchor: middle" x="396.77" y="303.028562" transform="rotate(-0 396.77 303.028562)">1.0</text>
     </g>
    </g>
   </g>
   <g id="matplotlib.axis_18">
    <g id="ytick_25">
     <g id="line2d_59">
      <g>
       <use xlink:href="#ma27b286f9c" x="291.734706" y="288.430125" style="stroke: #000000; stroke-width: 0.8"/>
      </g>
     </g>
    </g>
    <g id="ytick_26">
     <g id="line2d_60">
      <g>
       <use xlink:href="#ma27b286f9c" x="291.734706" y="257.122831" style="stroke: #000000; stroke-width: 0.8"/>
      </g>
     </g>
    </g>
    <g id="ytick_27">
     <g id="line2d_61">
      <g>
       <use xlink:href="#ma27b286f9c" x="291.734706" y="225.815537" style="stroke: #000000; stroke-width: 0.8"/>
      </g>
     </g>
    </g>
   </g>
   <g id="patch_44">
    <path d="M 291.734706 288.430125 
L 291.734706 210.16189 
" style="fill: none; stroke: #000000; stroke-width: 0.8; stroke-linejoin: miter; stroke-linecap: square"/>
   </g>
   <g id="patch_45">
    <path d="M 396.77 288.430125 
L 396.77 210.16189 
" style="fill: none; stroke: #000000; stroke-width: 0.8; stroke-linejoin: miter; stroke-linecap: square"/>
   </g>
   <g id="patch_46">
    <path d="M 291.734706 288.430125 
L 396.77 288.430125 
" style="fill: none; stroke: #000000; stroke-width: 0.8; stroke-linejoin: miter; stroke-linecap: square"/>
   </g>
   <g id="patch_47">
    <path d="M 291.734706 210.16189 
L 396.77 210.16189 
" style="fill: none; stroke: #000000; stroke-width: 0.8; stroke-linejoin: miter; stroke-linecap: square"/>
   </g>
  </g>
 </g>
 <defs>
  <clipPath id="p1432c14b53">
   <rect x="39.65" y="22.318125" width="105.035294" height="78.268235"/>
  </clipPath>
  <clipPath id="pe695b5258c">
   <rect x="165.692353" y="22.318125" width="105.035294" height="78.268235"/>
  </clipPath>
  <clipPath id="pf6382d6906">
   <rect x="39.65" y="116.240007" width="105.035294" height="78.268235"/>
  </clipPath>
  <clipPath id="p5b3b453d7d">
   <rect x="165.692353" y="116.240007" width="105.035294" height="78.268235"/>
  </clipPath>
  <clipPath id="p8ef8277fea">
   <rect x="39.65" y="210.16189" width="105.035294" height="78.268235"/>
  </clipPath>
  <clipPath id="pa03c4fabeb">
   <rect x="165.692353" y="210.16189" width="105.035294" height="78.268235"/>
  </clipPath>
 </defs>
</svg>
